<?xml version="1.0" standalone="no"?>
<!DOCTYPE svg PUBLIC "-//W3C//DTD SVG 20010904//EN"
 "http://www.w3.org/TR/2001/REC-SVG-20010904/DTD/svg10.dtd">
<svg version="1.0" xmlns="http://www.w3.org/2000/svg"
 width="2289.000000pt" height="2289.000000pt" viewBox="0 0 2289.000000 2289.000000"
 preserveAspectRatio="xMidYMid meet">
<metadata>
Created by potrace 1.14, written by Peter Selinger 2001-2017
</metadata>
<g transform="translate(0.000000,2289.000000) scale(0.100000,-0.100000)"
fill="#000000" stroke="none">
<path d="M1436 19793 c2 -450 6 -1235 8 -1745 3 -510 2 -930 -3 -932 -4 -3
-25 -7 -47 -10 -21 -2 -50 -7 -64 -10 -14 -3 -36 -8 -50 -10 -89 -15 -373 -96
-550 -157 -168 -58 -272 -128 -363 -242 -102 -127 -147 -269 -142 -442 4 -154
24 -224 95 -333 75 -116 156 -186 402 -343 282 -181 389 -265 439 -345 16 -26
69 -186 84 -253 19 -84 151 -522 174 -576 60 -140 100 -228 123 -268 15 -26
28 -50 28 -53 0 -10 102 -155 150 -213 175 -210 391 -359 645 -443 94 -31 99
-33 180 -48 28 -6 61 -12 75 -15 67 -14 181 -20 345 -19 l181 2 26 -67 c35
-87 144 -354 162 -394 15 -36 49 -117 156 -381 l73 -179 -29 -21 c-176 -126
-310 -348 -349 -581 -20 -115 -9 -344 25 -505 6 -30 14 -66 16 -80 40 -198
175 -583 275 -781 109 -218 262 -416 403 -524 20 -15 50 -53 68 -84 42 -75 93
-147 139 -196 23 -24 57 -84 87 -153 57 -128 130 -259 211 -377 155 -227 400
-495 579 -633 53 -40 112 -96 136 -129 24 -32 71 -86 106 -120 l64 -63 -125
-1 c-68 0 -331 -2 -584 -4 -253 -1 -722 -4 -1042 -6 -321 -2 -584 -7 -584 -11
-1 -4 -2 -11 -3 -15 -1 -5 -5 -29 -9 -54 -4 -25 -10 -57 -12 -70 -2 -13 -15
-96 -30 -184 -14 -88 -28 -171 -30 -184 -12 -70 -19 -117 -17 -123 2 -7 -100
-58 -114 -58 -11 0 -285 -137 -383 -192 -58 -32 -106 -58 -108 -58 -2 0 -16
-8 -31 -19 -15 -10 -87 -57 -160 -105 -356 -234 -655 -526 -854 -836 -86 -134
-121 -203 -213 -415 -15 -36 -60 -174 -74 -230 -10 -37 -20 -47 -135 -123
-284 -187 -473 -393 -604 -662 -82 -169 -144 -382 -168 -585 -10 -84 -13 -401
-4 -416 7 -11 42 -19 155 -35 22 -4 48 -10 57 -15 10 -6 18 -8 18 -5 0 2 16 0
36 -6 20 -5 46 -11 57 -13 59 -12 278 -95 382 -145 346 -168 617 -417 832
-765 34 -55 66 -106 70 -112 6 -9 30 -2 92 28 272 131 749 282 1111 353 14 2
50 10 80 16 82 17 87 18 195 35 55 9 111 18 125 20 14 2 50 7 80 10 30 4 69 8
85 10 209 25 496 25 665 0 14 -2 57 -7 95 -10 77 -7 151 -14 205 -20 19 -2 67
-7 105 -10 39 -3 86 -8 105 -10 194 -22 227 -22 335 5 50 12 100 24 112 26 12
2 86 20 165 38 79 19 155 37 168 40 14 3 93 21 175 41 83 20 159 38 170 40 11
3 65 16 120 29 75 19 887 185 1030 211 41 8 271 46 305 51 l35 5 114 -283
c169 -420 205 -483 354 -633 219 -220 492 -334 795 -333 185 0 311 27 472 100
326 149 568 465 633 829 16 87 19 268 6 349 -17 109 -21 126 -45 194 -14 38
-23 70 -22 71 3 3 86 11 213 20 44 3 96 8 115 10 19 2 82 7 140 10 58 3 139 8
180 10 66 4 128 7 420 20 540 25 2153 24 2380 0 25 -3 79 -7 120 -10 75 -5
146 -11 250 -20 30 -3 87 -7 125 -10 39 -3 95 -7 125 -10 59 -5 140 -12 260
-20 41 -3 98 -8 125 -10 67 -6 165 -14 249 -20 40 -3 74 -1 81 5 8 7 36 4 91
-10 43 -11 93 -23 109 -25 17 -3 41 -7 55 -10 14 -3 67 -9 118 -15 52 -6 108
-12 125 -15 18 -2 55 -7 82 -10 28 -4 64 -8 80 -11 17 -2 46 -6 65 -8 19 -2
71 -9 115 -14 44 -6 112 -14 150 -17 39 -3 77 -8 85 -10 8 -2 29 -6 45 -9 17
-3 73 -12 125 -21 52 -9 109 -18 125 -21 17 -3 82 -14 145 -25 63 -12 124 -22
135 -24 21 -3 128 -21 180 -30 17 -3 55 -10 85 -15 62 -11 99 -18 133 -24 12
-2 33 -7 47 -10 14 -3 39 -7 55 -10 32 -4 228 -44 495 -100 151 -31 347 -75
633 -141 119 -27 478 -100 542 -109 22 -3 54 -8 70 -11 41 -7 82 -14 135 -22
82 -14 224 -9 385 12 22 3 63 8 90 11 83 10 494 12 585 3 169 -16 196 -19 230
-24 19 -2 51 -6 70 -9 36 -5 216 -33 260 -41 23 -4 296 -62 331 -70 8 -2 40
-10 70 -19 30 -9 54 -16 54 -15 0 4 251 -66 330 -93 131 -44 231 -80 250 -88
11 -5 49 -21 85 -36 52 -21 124 -54 221 -102 3 -1 21 22 40 53 184 301 346
485 581 658 250 184 579 318 918 373 19 3 44 7 55 9 11 2 23 4 27 4 4 1 7 11
7 23 0 13 0 84 0 158 0 74 -2 151 -3 170 -9 91 -17 152 -27 201 -6 30 -12 65
-15 79 -42 219 -166 482 -312 665 -128 160 -359 353 -529 444 -13 6 -23 18
-23 27 0 40 -99 305 -162 434 -122 251 -266 450 -477 660 -140 140 -184 178
-281 252 -41 32 -80 62 -87 67 -84 72 -407 267 -594 359 l-136 67 -13 70 c-8
39 -67 227 -132 419 -65 192 -118 350 -118 350 0 1 -30 0 -67 -1 -175 -4
-1973 -12 -1973 -8 0 2 16 21 35 42 19 21 49 59 67 84 17 26 45 55 62 65 67
39 209 159 285 241 86 91 125 143 207 279 29 47 62 95 75 107 105 97 254 334
310 491 8 21 23 48 35 60 51 52 117 142 154 210 23 41 52 82 66 91 45 30 189
178 246 255 180 240 322 580 452 1080 47 181 58 247 61 361 11 407 -229 757
-610 887 -56 19 -73 23 -150 37 -16 3 -73 5 -126 6 -233 0 -473 -99 -646 -267
-49 -48 -56 -51 -87 -44 -19 4 -85 6 -147 5 -118 -3 -227 -26 -315 -64 -43
-19 -46 -20 -82 -3 -20 9 -39 20 -42 23 -6 8 -152 63 -205 78 -22 7 -62 15
-90 19 -62 9 -257 9 -305 0 -375 -67 -657 -328 -751 -696 -24 -96 -30 -142
-31 -244 -1 -72 -5 -88 -27 -120 -14 -21 -30 -38 -34 -38 -5 0 -36 24 -70 52
-34 29 -64 54 -66 55 -2 1 2 44 8 95 18 145 23 223 24 353 0 111 -9 260 -17
274 -2 3 -7 27 -10 52 -17 130 -94 345 -181 505 -25 46 -40 85 -35 90 15 15
87 165 123 255 29 72 59 163 93 280 2 9 53 47 112 85 120 77 263 193 343 280
30 31 61 64 69 73 46 49 135 183 190 286 68 126 149 368 165 490 3 22 7 51 10
64 17 89 27 472 12 487 -3 4 -19 8 -34 10 -15 1 -41 5 -58 8 -16 4 -41 8 -55
11 -247 46 -493 138 -710 265 -257 150 -525 422 -689 698 -28 48 -55 92 -59
99 -6 9 -33 0 -100 -32 -168 -82 -332 -142 -534 -194 -113 -30 -350 -76 -443
-86 -27 -3 -68 -7 -90 -10 -95 -11 -152 -15 -308 -21 l-165 -6 -16 55 c-9 30
-16 60 -16 65 0 16 -79 251 -106 315 -146 346 -333 593 -609 803 -168 128
-385 245 -593 320 -100 37 -327 98 -402 109 -24 4 -47 8 -50 10 -3 2 -34 6
-70 10 -36 4 -73 9 -82 10 -119 23 -562 24 -683 1 -11 -2 -47 -7 -80 -11 -32
-4 -67 -8 -76 -10 -9 -2 -34 -6 -55 -9 -70 -11 -267 -64 -369 -99 -129 -44
-187 -69 -313 -134 -376 -196 -646 -459 -835 -814 -41 -78 -144 -323 -150
-358 -2 -9 -15 -54 -29 -101 -15 -47 -30 -102 -34 -124 l-7 -38 -221 6 c-121
4 -239 8 -260 11 -22 2 -69 6 -105 10 -71 7 -106 11 -191 25 -30 5 -73 12 -95
15 -22 3 -67 12 -101 20 -34 8 -73 16 -85 19 -139 25 -435 130 -611 216 l-81
39 -59 -99 c-205 -348 -521 -640 -864 -800 -182 -85 -438 -165 -594 -185 -94
-12 -100 -15 -101 -53 -7 -259 7 -430 55 -632 78 -337 280 -660 544 -871 43
-33 87 -69 98 -79 12 -10 43 -31 69 -46 26 -16 63 -39 83 -52 21 -12 43 -25
50 -28 6 -4 12 -14 12 -23 0 -25 62 -215 100 -306 33 -78 87 -187 145 -291
l28 -50 -38 -80 c-36 -77 -99 -254 -108 -304 -3 -14 -8 -36 -11 -50 -3 -14 -8
-38 -11 -55 -3 -16 -8 -50 -12 -75 -10 -59 -10 -426 0 -515 7 -62 12 -98 23
-157 1 -10 -12 -28 -31 -43 -19 -14 -49 -39 -67 -55 -18 -17 -36 -30 -40 -30
-4 0 -19 16 -35 36 -24 32 -27 45 -29 118 -2 127 -13 201 -44 296 -47 143
-112 259 -200 356 -48 53 -154 144 -167 144 -6 0 -13 3 -15 8 -5 13 -151 85
-208 103 l-55 17 -42 98 c-22 55 -46 110 -52 124 -5 14 -33 81 -61 150 -28 69
-55 134 -60 145 -5 11 -37 88 -70 170 -64 158 -66 162 -99 237 -12 26 -21 51
-21 54 0 3 -6 20 -14 37 -8 18 -35 84 -61 147 -26 63 -53 129 -60 145 -7 17
-43 104 -80 195 -65 158 -181 442 -191 467 -3 6 12 26 33 45 162 141 291 285
378 423 44 69 135 249 135 268 0 6 6 24 14 39 8 15 17 42 21 60 4 18 13 51 20
73 23 71 43 258 39 375 -10 360 -132 696 -401 1109 -96 147 -155 245 -183 302
l-22 46 36 89 c103 247 129 349 125 484 -8 244 -138 465 -345 586 -23 14 -82
39 -131 56 -79 28 -100 32 -208 32 -317 2 -636 -55 -861 -154 l-51 -23 -44 48
c-58 64 -52 57 -149 165 -47 52 -104 115 -126 140 -54 59 -76 83 -154 171 -36
40 -74 82 -85 94 -11 11 -56 61 -100 110 -44 49 -89 99 -100 111 -11 11 -35
38 -54 60 -28 32 -176 196 -216 240 -5 6 -44 48 -85 93 -41 46 -84 93 -95 105
-38 42 -172 191 -225 251 -30 33 -59 65 -64 71 -6 6 -45 49 -86 95 -41 46 -96
106 -121 134 -81 89 -134 147 -144 159 -5 6 -50 56 -100 111 -49 55 -106 117
-125 139 -19 21 -40 44 -45 50 -6 6 -72 80 -148 164 -76 83 -140 152 -142 152
-1 0 -1 -368 1 -817z m6639 -4573 c39 -6 81 -13 95 -15 35 -6 77 -12 130 -20
58 -8 68 -10 230 -35 74 -11 196 -30 270 -41 74 -11 151 -23 170 -26 19 -3 44
-5 54 -5 23 1 24 2 -103 -88 -517 -364 -811 -857 -915 -1533 -7 -48 -15 -89
-17 -91 -2 -2 -53 -41 -114 -86 -116 -88 -215 -168 -227 -185 -14 -19 -30 77
-42 258 -3 44 -23 76 -48 77 -4 0 -13 6 -20 13 -7 6 -38 30 -68 53 -30 23 -91
77 -135 120 -221 217 -354 481 -395 780 -11 85 -17 211 -9 217 2 2 150 93 329
201 179 109 332 202 340 207 232 141 312 189 316 189 3 0 12 7 21 16 10 9 25
13 42 10 14 -3 58 -10 96 -16z m7127 -60 c71 -44 132 -80 135 -80 3 0 17 -8
31 -19 32 -22 292 -181 297 -181 2 0 30 -17 62 -37 32 -21 67 -43 78 -50 11
-6 56 -33 99 -60 43 -26 91 -55 105 -63 14 -8 43 -25 63 -38 l38 -23 -5 -72
c-20 -312 -100 -540 -268 -766 -78 -104 -244 -261 -355 -336 -24 -15 -45 -31
-47 -35 -2 -3 -7 -39 -11 -80 -3 -40 -8 -80 -9 -89 -2 -9 -4 -26 -4 -39 -1
-19 -14 -12 -108 61 -58 45 -107 89 -108 97 -1 8 -5 44 -9 80 -30 312 -139
630 -304 885 -164 256 -367 448 -729 691 -66 44 -98 71 -90 75 7 4 39 10 72
14 33 3 67 8 75 10 8 2 38 7 65 11 28 3 59 8 70 10 10 2 37 6 60 9 45 7 157
24 195 30 62 10 168 27 205 32 51 7 259 40 263 42 2 0 62 -35 134 -79z
m-12357 -7812 c-24 -132 -36 -203 -40 -234 -2 -20 -6 -44 -9 -53 -3 -9 -7 -36
-10 -61 -4 -25 -8 -56 -10 -70 -6 -30 -86 -515 -91 -550 -2 -14 -20 -124 -40
-245 -20 -120 -38 -231 -40 -245 -2 -14 -8 -48 -14 -76 -5 -28 -12 -71 -15
-95 -3 -24 -8 -55 -11 -69 -3 -14 -8 -45 -11 -70 -3 -25 -8 -54 -10 -65 -2
-11 -16 -92 -30 -180 -14 -88 -28 -169 -30 -180 -2 -11 -8 -47 -13 -80 -18
-112 -21 -130 -25 -155 -13 -69 -26 -149 -31 -185 -3 -22 -8 -51 -11 -65 -3
-14 -7 -36 -9 -50 -3 -23 -51 -310 -59 -355 -6 -34 -15 -88 -21 -125 -3 -19
-10 -60 -15 -90 -5 -30 -12 -68 -14 -85 -3 -16 -12 -73 -21 -125 -9 -52 -18
-108 -21 -125 -3 -16 -7 -37 -9 -45 -2 -8 -7 -40 -10 -70 -4 -30 -8 -57 -10
-60 -2 -3 -6 -27 -10 -55 -16 -123 -13 -118 -90 -132 l-69 -13 -191 115 c-289
176 -649 395 -750 456 l-90 55 1 65 c5 409 191 774 528 1040 56 43 111 87 123
96 18 15 23 32 28 98 4 44 8 94 10 110 2 17 7 53 10 80 11 82 12 88 20 135 11
67 14 80 19 98 3 9 8 31 11 47 9 55 14 74 40 172 25 93 33 123 51 168 4 11 8
23 8 27 1 3 4 10 9 14 4 4 7 16 7 26 0 10 4 26 10 36 5 9 21 46 36 82 156 386
450 766 789 1022 103 77 130 97 133 97 1 1 0 -14 -3 -31z m17563 -276 c264
-261 452 -553 587 -907 41 -108 125 -406 139 -495 6 -40 16 -98 21 -120 2 -8
6 -40 10 -70 3 -30 8 -68 10 -85 4 -27 16 -154 19 -197 1 -9 42 -47 91 -84
220 -166 363 -336 462 -550 42 -91 86 -225 97 -299 3 -22 10 -69 16 -105 5
-36 10 -94 10 -130 l0 -65 -52 -30 c-28 -16 -58 -34 -67 -40 -74 -45 -547
-334 -569 -346 -15 -9 -67 -41 -117 -71 -49 -31 -91 -55 -93 -53 -3 3 -8 25
-28 130 -8 44 -19 100 -24 125 -5 25 -12 59 -14 75 -3 17 -18 100 -35 185 -16
85 -32 169 -35 185 -3 17 -21 111 -40 210 -19 99 -37 191 -39 205 -9 47 -27
145 -31 165 -11 57 -38 203 -42 225 -2 14 -9 45 -14 70 -5 25 -21 108 -35 185
-14 77 -30 160 -35 185 -5 25 -12 57 -14 73 -7 43 -46 247 -56 297 -5 25 -12
56 -14 70 -2 14 -12 66 -21 115 -10 50 -19 101 -22 115 -5 30 -81 425 -88 460
-3 14 -8 41 -11 60 -6 35 -27 147 -59 310 -9 47 -19 99 -21 115 -6 34 -32 169
-39 203 -5 21 -3 22 15 12 11 -6 73 -63 138 -128z"/>
</g>
</svg>
